# xmcd
#
# Track frame offsets:
# 150
# 21955
# 38067
# 62490
# 72280
# 96695
# 112202
# 147777
# 163965
# 182822
# 207717
#
# Disc length: 3010 seconds
#
#
# Revision: 1
# Processed by: cddbd v1.5.1PL2 Copyright (c) Steve Scherf et al.
# Submitted via: FreeRIP 2.941 
#
DISCID=ad0bc00b
DTITLE=Stone Crazy Blues Band - Barnyard Boogie
DYEAR=2006
DGENRE=Blues
TTITLE0=The Freeze
TTITLE1=1-2 Steppin chick
TTITLE2=Little Red Rooster
TTITLE3=Slow Down
TTITLE4=Help Me
TTITLE5=Motherless Children
TTITLE6=Thinking of You
TTITLE7=Trouble in my Mind
TTITLE8=Barnyard Boogie
TTITLE9=Workin Blues
TTITLE10=Introspect
EXTD=As heard on\nBluesfestRadio.com
EXTT0=
EXTT1=
EXTT2=
EXTT3=
EXTT4=
EXTT5=
EXTT6=
EXTT7=
EXTT8=
EXTT9=
EXTT10=
PLAYORDER=
